<svg width="21" height="20" viewBox="0 0 21 20" fill="none" xmlns="http://www.w3.org/2000/svg">
<path d="M10.125 0.0400391C4.625 0.0400391 0.125 4.53004 0.125 10.06C0.125 15.06 3.785 19.21 8.565 19.96V12.96H6.025V10.06H8.565V7.85004C8.565 5.34004 10.055 3.96004 12.345 3.96004C13.435 3.96004 14.575 4.15004 14.575 4.15004V6.62004H13.315C12.075 6.62004 11.685 7.39004 11.685 8.18004V10.06H14.465L14.015 12.96H11.685V19.96C14.0414 19.5879 16.1872 18.3856 17.7349 16.5701C19.2826 14.7546 20.1304 12.4457 20.125 10.06C20.125 4.53004 15.625 0.0400391 10.125 0.0400391Z" fill="#FFEAD7"/>
</svg>
