<svg width="14" height="15" viewBox="0 0 14 15" fill="none" xmlns="http://www.w3.org/2000/svg">
<path d="M6.99992 0.833344C3.31992 0.833344 0.333252 3.82001 0.333252 7.50001C0.333252 11.18 3.31992 14.1667 6.99992 14.1667C10.6799 14.1667 13.6666 11.18 13.6666 7.50001C13.6666 3.82001 10.6799 0.833344 6.99992 0.833344ZM6.99992 10.8333C6.63325 10.8333 6.33325 10.5333 6.33325 10.1667V7.50001C6.33325 7.13334 6.63325 6.83334 6.99992 6.83334C7.36659 6.83334 7.66659 7.13334 7.66659 7.50001V10.1667C7.66659 10.5333 7.36659 10.8333 6.99992 10.8333ZM7.66659 5.50001H6.33325V4.16668H7.66659V5.50001Z" fill="#969696"/>
</svg>
