<svg width="14" height="14" viewBox="0 0 14 14" fill="none" xmlns="http://www.w3.org/2000/svg">
<path d="M7.0026 0.333984C3.3226 0.333984 0.335938 3.32065 0.335938 7.00065C0.335938 10.6807 3.3226 13.6673 7.0026 13.6673C10.6826 13.6673 13.6693 10.6807 13.6693 7.00065C13.6693 3.32065 10.6826 0.333984 7.0026 0.333984ZM7.0026 10.334C6.63594 10.334 6.33594 10.034 6.33594 9.66732V7.00065C6.33594 6.63398 6.63594 6.33398 7.0026 6.33398C7.36927 6.33398 7.66927 6.63398 7.66927 7.00065V9.66732C7.66927 10.034 7.36927 10.334 7.0026 10.334ZM7.66927 5.00065H6.33594V3.66732H7.66927V5.00065Z" fill="#FFEAD7"/>
</svg>
