<svg width="21" height="20" viewBox="0 0 21 20" fill="none" xmlns="http://www.w3.org/2000/svg">
<path d="M6.675 0H15.075C18.275 0 20.875 2.6 20.875 5.8V14.2C20.875 15.7383 20.2639 17.2135 19.1762 18.3012C18.0885 19.3889 16.6133 20 15.075 20H6.675C3.475 20 0.875 17.4 0.875 14.2V5.8C0.875 4.26174 1.48607 2.78649 2.57378 1.69878C3.66149 0.61107 5.13674 0 6.675 0ZM6.475 2C5.52022 2 4.60455 2.37928 3.92942 3.05442C3.25428 3.72955 2.875 4.64522 2.875 5.6V14.4C2.875 16.39 4.485 18 6.475 18H15.275C16.2298 18 17.1455 17.6207 17.8206 16.9456C18.4957 16.2705 18.875 15.3548 18.875 14.4V5.6C18.875 3.61 17.265 2 15.275 2H6.475ZM16.125 3.5C16.4565 3.5 16.7745 3.6317 17.0089 3.86612C17.2433 4.10054 17.375 4.41848 17.375 4.75C17.375 5.08152 17.2433 5.39946 17.0089 5.63388C16.7745 5.8683 16.4565 6 16.125 6C15.7935 6 15.4755 5.8683 15.2411 5.63388C15.0067 5.39946 14.875 5.08152 14.875 4.75C14.875 4.41848 15.0067 4.10054 15.2411 3.86612C15.4755 3.6317 15.7935 3.5 16.125 3.5ZM10.875 5C12.2011 5 13.4729 5.52678 14.4105 6.46447C15.3482 7.40215 15.875 8.67392 15.875 10C15.875 11.3261 15.3482 12.5979 14.4105 13.5355C13.4729 14.4732 12.2011 15 10.875 15C9.54892 15 8.27715 14.4732 7.33947 13.5355C6.40178 12.5979 5.875 11.3261 5.875 10C5.875 8.67392 6.40178 7.40215 7.33947 6.46447C8.27715 5.52678 9.54892 5 10.875 5ZM10.875 7C10.0794 7 9.31629 7.31607 8.75368 7.87868C8.19107 8.44129 7.875 9.20435 7.875 10C7.875 10.7956 8.19107 11.5587 8.75368 12.1213C9.31629 12.6839 10.0794 13 10.875 13C11.6706 13 12.4337 12.6839 12.9963 12.1213C13.5589 11.5587 13.875 10.7956 13.875 10C13.875 9.20435 13.5589 8.44129 12.9963 7.87868C12.4337 7.31607 11.6706 7 10.875 7Z" fill="#FFEAD7"/>
</svg>
