<svg width="41" height="40" viewBox="0 0 41 40" fill="none" xmlns="http://www.w3.org/2000/svg">
<path d="M19.8282 33.7455C20.2193 33.5094 20.709 33.5094 21.1001 33.7455L32.2794 40.493C33.2115 41.0556 34.3614 40.2199 34.114 39.1596L31.1469 26.4437C31.0431 25.9988 31.1943 25.5329 31.5397 25.2338L41.4181 16.6763C42.241 15.9634 41.8011 14.6117 40.7162 14.5197L27.7115 13.4167C27.2567 13.3782 26.8605 13.091 26.6824 12.6707L21.5973 0.673523C21.1732 -0.327098 19.7551 -0.327099 19.331 0.673522L14.2459 12.6707C14.0678 13.091 13.6716 13.3782 13.2168 13.4167L0.21209 14.5197C-0.872767 14.6117 -1.31268 15.9634 -0.489765 16.6763L9.38864 25.2338C9.73397 25.5329 9.88517 25.9988 9.78135 26.4437L6.8143 39.1596C6.56691 40.2199 7.71677 41.0556 8.64887 40.493L19.8282 33.7455Z" fill="#FF9B37"/>
</svg>
